<?xml version="1.0" encoding="utf-8"?>
<!-- Generator: Adobe Illustrator 27.0.0, SVG Export Plug-In . SVG Version: 6.00 Build 0)  -->
<svg version="1.1" id="Layer_1" xmlns="http://www.w3.org/2000/svg" xmlns:xlink="http://www.w3.org/1999/xlink" x="0px" y="0px"
	 viewBox="0 0 700 700" style="enable-background:new 0 0 700 700;" xml:space="preserve">
<style type="text/css">
	.st0{fill:#020202;}
</style>
<polygon class="st0" points="671.5,107.2 671.5,80.3 671.5,53.4 644.7,53.4 644.7,26.6 617.8,26.6 590.9,26.6 590.9,-0.3 564,-0.3 
	537.1,-0.3 510.2,-0.3 483.3,-0.3 456.5,-0.3 429.6,-0.3 402.7,-0.3 375.8,-0.3 348.9,-0.3 322,-0.3 295.1,-0.3 268.2,-0.3 
	241.4,-0.3 214.5,-0.3 187.6,-0.3 160.7,-0.3 133.8,-0.3 106.9,-0.3 106.9,26.6 80.1,26.6 53.2,26.6 53.2,53.4 26.3,53.4 26.3,80.3 
	26.3,107.2 -0.6,107.2 -0.6,134.1 -0.6,161 -0.6,187.9 -0.6,214.8 -0.6,241.6 -0.6,268.5 -0.6,295.4 -0.6,322.3 -0.6,349.2 
	-0.6,376.1 -0.6,403 -0.6,429.8 -0.6,456.7 -0.6,483.6 -0.6,510.5 -0.6,537.4 -0.6,564.3 -0.6,591.2 26.3,591.2 26.3,618 
	26.3,644.9 53.2,644.9 53.2,671.8 80.1,671.8 106.9,671.8 106.9,698.7 133.8,698.7 160.7,698.7 187.6,698.7 214.5,698.7 
	241.4,698.7 268.2,698.7 295.1,698.7 322,698.7 348.9,698.7 375.8,698.7 375.8,671.8 375.8,644.9 375.8,618 375.8,591.2 
	375.8,564.3 375.8,537.4 375.8,510.5 375.8,483.6 375.8,456.7 375.8,429.8 348.9,429.8 322,429.8 295.1,429.8 295.1,403 
	295.1,376.1 295.1,349.2 295.1,322.3 322,322.3 348.9,322.3 375.8,322.3 375.8,295.4 375.8,268.5 375.8,241.6 375.8,214.8 
	375.8,187.9 375.8,161 402.7,161 402.7,134.1 429.6,134.1 429.6,107.2 456.5,107.2 483.3,107.2 510.2,107.2 537.1,107.2 564,107.2 
	590.9,107.2 590.9,134.1 590.9,161 590.9,187.9 590.9,214.8 564,214.8 537.1,214.8 510.2,214.8 510.2,241.6 483.3,241.6 
	483.3,268.5 483.3,295.4 483.3,322.3 510.2,322.3 537.1,322.3 564,322.3 590.9,322.3 590.9,349.2 590.9,376.1 564,376.1 564,403 
	537.1,403 537.1,429.8 510.2,429.8 483.3,429.8 483.3,456.7 483.3,483.6 483.3,510.5 483.3,537.4 483.3,564.3 483.3,591.2 
	483.3,618 483.3,644.9 483.3,671.8 483.3,698.7 510.2,698.7 537.1,698.7 564,698.7 590.9,698.7 590.9,671.8 617.8,671.8 
	644.7,671.8 644.7,644.9 671.5,644.9 671.5,618 671.5,591.2 698.4,591.2 698.4,564.3 698.4,537.4 698.4,510.5 698.4,483.6 
	698.4,456.7 698.4,429.8 698.4,403 698.4,376.1 698.4,349.2 698.4,322.3 698.4,295.4 698.4,268.5 698.4,241.6 698.4,214.8 
	698.4,187.9 698.4,161 698.4,134.1 698.4,107.2 "/>
</svg>
