<?xml version="1.0" encoding="utf-8"?>
<!-- Generator: Adobe Illustrator 27.0.0, SVG Export Plug-In . SVG Version: 6.00 Build 0)  -->
<svg version="1.1" id="Layer_1" xmlns="http://www.w3.org/2000/svg" xmlns:xlink="http://www.w3.org/1999/xlink" x="0px" y="0px"
	 viewBox="0 0 700 700" style="enable-background:new 0 0 700 700;" xml:space="preserve">
<style type="text/css">
	.st0{fill:#020202;}
</style>
<g>
	<path class="st0" d="M674.6,107.7V80.8V54h-26.9V27.1h-26.9h-26.9V0.2h-26.9h-26.9h-26.9h-26.9h-26.9h-26.9h-26.9h-26.9H352h-26.9
		h-26.9h-26.9h-26.9h-26.9h-26.9h-26.9h-26.9h-26.9v26.9H83.2H56.3V54H29.4v26.9v26.9H2.5v26.9v26.9v26.9v26.9v26.9V269v26.9v26.9
		v26.9v26.9v26.9v26.9v26.9v26.9v26.9v26.9v26.9v26.9h26.9v26.9v26.9h26.9v26.9h26.9h26.9v26.9h26.9h26.9h26.9h26.9h26.9h26.9h26.9
		h26.9H352h26.9h26.9h26.9h26.9h26.9h26.9h26.9h26.9h26.9v-26.9h26.9h26.9v-26.9h26.9v-26.9v-26.9h26.9v-26.9v-26.9v-26.9v-26.9
		v-26.9v-26.9v-26.9v-26.9v-26.9v-26.9v-26.9V269v-26.9v-26.9v-26.9v-26.9v-26.9v-26.9H674.6z M620.8,215.3v26.9V269v26.9v26.9v26.9
		v26.9v26.9v26.9v26.9v26.9v26.9h-26.9v26.9v26.9h-26.9v26.9h-26.9h-26.9v26.9h-26.9h-26.9h-26.9h-26.9h-26.9H352h-26.9h-26.9h-26.9
		h-26.9h-26.9h-26.9v-26.9h-26.9h-26.9v-26.9h-26.9v-26.9v-26.9H83.2v-26.9v-26.9v-26.9v-26.9v-26.9v-26.9v-26.9v-26.9V269v-26.9
		v-26.9v-26.9h26.9v-26.9v-26.9h26.9v-26.9h26.9h26.9V80.8h26.9h26.9h26.9h26.9h26.9H352h26.9h26.9h26.9h26.9h26.9h26.9v26.9h26.9
		h26.9v26.9h26.9v26.9v26.9h26.9V215.3z"/>
	<path class="st0" d="M540.2,161.5h-26.9v-26.9h-26.9h-26.9h-26.9h-26.9h-26.9H352h-26.9h-26.9h-26.9h-26.9h-26.9h-26.9v26.9h-26.9
		v26.9h-26.9v26.9v26.9V269v26.9v26.9v26.9v26.9v26.9v26.9v26.9v26.9v26.9h26.9v26.9h26.9v26.9h26.9h26.9h26.9h26.9h26.9H352h26.9
		h26.9h26.9h26.9h26.9h26.9v-26.9h26.9v-26.9h26.9v-26.9v-26.9v-26.9v-26.9v-26.9v-26.9v-26.9v-26.9V269v-26.9v-26.9v-26.9h-26.9
		V161.5z M459.5,269v26.9h26.9v26.9v26.9v26.9v26.9h-26.9v26.9h-26.9v26.9h-26.9v26.9h-26.9H352h-26.9h-26.9v-26.9h-26.9v-26.9
		h-26.9v-26.9h-26.9v-26.9v-26.9v-26.9v-26.9h26.9V269h26.9v-26.9h26.9v-26.9h26.9H352h26.9h26.9v26.9h26.9V269H459.5z M513.3,215.3
		v26.9h-26.9h-26.9v-26.9v-26.9h26.9h26.9V215.3z"/>
	<polygon class="st0" points="405.8,269 378.9,269 352,269 325.1,269 298.2,269 298.2,295.9 271.3,295.9 271.3,322.8 271.3,349.7 
		271.3,376.5 271.3,403.4 298.2,403.4 298.2,430.3 325.1,430.3 352,430.3 378.9,430.3 405.8,430.3 405.8,403.4 432.6,403.4 
		432.6,376.5 432.6,349.7 432.6,322.8 432.6,295.9 405.8,295.9 	"/>
</g>
</svg>
