<?xml version="1.0" encoding="utf-8"?>
<!-- Generator: Adobe Illustrator 27.0.0, SVG Export Plug-In . SVG Version: 6.00 Build 0)  -->
<svg version="1.1" id="Layer_1" xmlns="http://www.w3.org/2000/svg" xmlns:xlink="http://www.w3.org/1999/xlink" x="0px" y="0px"
	 viewBox="0 0 700 700" style="enable-background:new 0 0 700 700;" xml:space="preserve">
<style type="text/css">
	.st0{fill:#020202;}
</style>
<path class="st0" d="M671.9,107.7V80.8V54H645V27.1h-26.9h-26.9V0.2h-26.9h-26.9h-26.9h-26.9h-26.9H430h-26.9h-26.9h-26.9h-26.9
	h-26.9h-26.9h-26.9h-26.9H188h-26.9h-26.9h-26.9v26.9H80.5H53.6V54H26.7v26.9v26.9H-0.2v26.9v26.9v26.9v26.9v26.9V269v26.9v26.9
	v26.9v26.9v26.9v26.9v26.9v26.9v26.9v26.9v26.9v26.9h26.9v26.9v26.9h26.9v26.9h26.9h26.9v26.9h26.9h26.9H188h26.9h26.9h26.9h26.9
	h26.9h26.9h26.9h26.9H430h26.9h26.9h26.9h26.9h26.9h26.9v-26.9h26.9H645v-26.9h26.9v-26.9v-26.9h26.9v-26.9v-26.9v-26.9v-26.9v-26.9
	v-26.9v-26.9v-26.9v-26.9v-26.9v-26.9V269v-26.9v-26.9v-26.9v-26.9v-26.9v-26.9H671.9z M214.9,564.7v-26.9H188v-26.9h-26.9v-26.9
	v-26.9v-26.9v-26.9v-26.9H188v-26.9h26.9v-26.9h26.9v-26.9h26.9h26.9v26.9h26.9v26.9v26.9h-26.9v26.9h-26.9v26.9v26.9v26.9h26.9
	h26.9h26.9v-26.9v-26.9v-26.9v-26.9v-26.9v-26.9v-26.9V269v-26.9v-26.9v-26.9v-26.9v-26.9v-26.9h26.9h26.9H430v26.9h26.9v26.9h26.9
	v26.9h26.9v26.9h26.9v26.9h26.9V269v26.9v26.9h-26.9h-26.9h-26.9v-26.9h-26.9v26.9v26.9v26.9v26.9v26.9v26.9v26.9v26.9H430v26.9
	h-26.9v26.9h-26.9v26.9h-26.9h-26.9h-26.9h-26.9h-26.9v-26.9H214.9z"/>
</svg>
