<?xml version="1.0" encoding="UTF-8"?>
<svg id="Layer_1" data-name="Layer 1" xmlns="http://www.w3.org/2000/svg" viewBox="0 0 699.76 699.75">
  <defs>
    <style>
      .cls-1 {
        fill: #020202;
      }
    </style>
  </defs>
  <path class="cls-1" d="M672.84,107.65V53.83h-26.92V26.92h-53.83V0H107.66V26.92H53.83v26.91H26.92v53.83H0v484.45H26.92v53.83h26.92v26.92h53.83v26.91h484.44v-26.91h53.83v-26.92h26.92v-53.83h26.92V107.65h-26.92ZM188.4,592.1v-26.92h-26.92v-26.91h-26.92v-26.92h-26.91V188.39h26.91v-26.91h26.92v-26.92h26.92v-26.92h26.91v-26.91H484.45v26.91h26.91v26.92h26.92v26.92h26.92v26.91h26.91v53.83h-53.83v-26.91h-26.92v-26.92h-26.91v-26.91h-26.92v-26.92H242.23v26.92h-26.92v26.91h-26.91v26.92h-26.92V484.45h26.92v26.91h26.91v26.92h26.92v26.91h215.3v-26.91h26.92v-26.92h26.91v-134.57h-26.91v-26.91h-26.92v80.73h-26.91v26.92h-26.92v26.92h-134.57v-26.92h-26.91v-107.65h26.91v-26.92h26.92v-26.92h107.65v-26.91h-26.91v-26.92h-80.74v26.92h-53.83v-53.83h26.91v-26.92h134.57v26.92h26.92v26.91h26.91v53.83h53.83v26.92h26.92v26.92h26.92v188.39h-26.92v26.91h-26.92v26.92h-26.91v26.91H215.31v-26.91h-26.91Z"/>
  <polygon class="cls-1" points="349.88 349.88 322.96 349.88 322.96 376.79 296.06 376.79 296.06 403.71 296.06 430.62 322.96 430.62 349.88 430.62 376.8 430.62 376.8 403.71 403.71 403.71 403.71 376.79 403.71 349.88 376.8 349.88 349.88 349.88"/>
</svg>