<?xml version="1.0" encoding="utf-8"?>
<!-- Generator: Adobe Illustrator 27.0.0, SVG Export Plug-In . SVG Version: 6.00 Build 0)  -->
<svg version="1.1" id="Layer_1" xmlns="http://www.w3.org/2000/svg" xmlns:xlink="http://www.w3.org/1999/xlink" x="0px" y="0px"
	 viewBox="0 0 700 700" style="enable-background:new 0 0 700 700;" xml:space="preserve">
<style type="text/css">
	.st0{fill:#020202;}
</style>
<g>
	<path class="st0" d="M676.3,104.3V77.1V49.9h-27.2V22.7h-27.2h-27.2V-4.4h-27.2h-27.2h-27.2H486h-27.2h-27.2h-27.2h-27.2h-27.2H323
		h-27.2h-27.2h-27.2h-27.2h-27.2h-27.2h-27.2h-27.2v27.2H78.4H51.2v27.2H24.1v27.2v27.2H-3.1v27.2v27.2v27.2V213v27.2v27.2v27.2
		v27.2v27.2V376v27.2v27.2v27.2v27.2v27.2v27.2v27.2v27.2h27.2v27.2v27.2h27.2v27.2h27.2h27.2v27.2h27.2h27.2h27.2h27.2h27.2h27.2
		h27.2H323h27.2h27.2h27.2h27.2h27.2H486h27.2h27.2h27.2h27.2v-27.2h27.2h27.2v-27.2h27.2v-27.2v-27.2h27.2v-27.2v-27.2v-27.2v-27.2
		v-27.2v-27.2v-27.2V376v-27.2v-27.2v-27.2v-27.2v-27.2V213v-27.2v-27.2v-27.2v-27.2H676.3z M594.7,566.3h-27.2h-27.2h-27.2H486
		h-27.2v-27.2h-27.2v-27.2h-27.2v-27.2h-27.2v-27.2h-27.2v-27.2H323h-27.2v27.2h-27.2v27.2h-27.2v27.2h-27.2v27.2h-27.2v27.2h-27.2
		h-27.2h-27.2v-27.2h27.2v-27.2h27.2v-27.2h27.2v-27.2h27.2v-27.2h27.2v-27.2h27.2V376h27.2v-27.2h-27.2v-27.2h-27.2v-27.2h-27.2
		v-27.2h-27.2v-27.2h-27.2V213h-27.2v-27.2h-27.2v-27.2v-27.2h27.2h27.2h27.2h27.2h27.2v27.2h27.2v27.2h27.2V213H323v27.2h27.2v27.2
		h27.2h27.2v-27.2h27.2V213h27.2v-27.2H486v-27.2h27.2v-27.2h27.2h27.2h27.2v27.2h-27.2v27.2h-27.2V213h-27.2v27.2H486v27.2h-27.2
		v27.2h-27.2v27.2h-27.2v27.2h27.2V376h27.2v27.2H486v27.2h27.2v27.2h27.2v27.2h27.2v27.2h27.2v27.2V566.3z"/>
	<polygon class="st0" points="513.2,484.7 486,484.7 486,457.5 458.9,457.5 458.9,430.4 431.7,430.4 431.7,403.2 404.5,403.2 
		404.5,376 377.3,376 377.3,348.8 377.3,321.7 350.2,321.7 350.2,294.5 323,294.5 323,267.3 295.8,267.3 295.8,240.1 268.6,240.1 
		268.6,213 241.5,213 241.5,185.8 214.3,185.8 214.3,158.6 187.1,158.6 159.9,158.6 159.9,185.8 187.1,185.8 187.1,213 214.3,213 
		214.3,240.1 241.5,240.1 241.5,267.3 268.6,267.3 268.6,294.5 295.8,294.5 295.8,321.7 323,321.7 323,348.8 323,376 350.2,376 
		350.2,403.2 377.3,403.2 377.3,430.4 404.5,430.4 404.5,457.5 431.7,457.5 431.7,484.7 458.9,484.7 458.9,511.9 486,511.9 
		486,539.1 513.2,539.1 540.4,539.1 540.4,511.9 513.2,511.9 	"/>
</g>
</svg>
