<?xml version="1.0" encoding="utf-8"?>
<!-- Generator: Adobe Illustrator 27.0.0, SVG Export Plug-In . SVG Version: 6.00 Build 0)  -->
<svg version="1.1" id="Layer_1" xmlns="http://www.w3.org/2000/svg" xmlns:xlink="http://www.w3.org/1999/xlink" x="0px" y="0px"
	 viewBox="0 0 700 700" style="enable-background:new 0 0 700 700;" xml:space="preserve">
<style type="text/css">
	.st0{fill:#020202;}
</style>
<g>
	<path class="st0" d="M671.7,105.9V78.8V51.7h-27.1V24.6h-27.1h-27.1V-2.5h-27.1h-27.1h-27.1h-27.1H455h-27.1h-27.1h-27.1h-27.1
		h-27.1h-27.1h-27.1h-27.1h-27.1h-27.1H157h-27.1h-27.1v27.1H75.7H48.7v27.1H21.6v27.1v27.1H-5.5V133v27.1v27.1v27.1v27.1v27.1v27.1
		v27.1v27.1v27.1v27.1v27.1V458v27.1v27.1v27.1v27.1v27.1h27.1v27.1v27.1h27.1v27.1h27.1h27.1v27.1h27.1H157h27.1h27.1h27.1h27.1
		h27.1h27.1h27.1h27.1h27.1h27.1H455h27.1h27.1h27.1h27.1h27.1v-27.1h27.1h27.1v-27.1h27.1v-27.1v-27.1h27.1v-27.1v-27.1v-27.1
		v-27.1V458v-27.1v-27.1v-27.1v-27.1v-27.1v-27.1v-27.1v-27.1v-27.1v-27.1v-27.1V133v-27.1H671.7z M617.5,241.3v27.1v27.1v27.1v27.1
		v27.1v27.1v27.1V458v27.1v27.1h-27.1v27.1h-27.1v27.1h-27.1h-27.1h-27.1H455h-27.1h-27.1h-27.1h-27.1h-27.1h-27.1h-27.1h-27.1
		h-27.1h-27.1H157h-27.1v-27.1h-27.1v-27.1H75.7v-27.1V458v-27.1v-27.1v-27.1v-27.1v-27.1v-27.1v-27.1v-27.1v-27.1h27.1v-27.1h27.1
		v-27.1H157h27.1h27.1h27.1h27.1h27.1h27.1h27.1h27.1h27.1h27.1H455h27.1h27.1h27.1h27.1v27.1h27.1v27.1h27.1V241.3z"/>
	<polygon class="st0" points="427.9,322.6 400.8,322.6 373.7,322.6 373.7,295.5 346.6,295.5 319.5,295.5 319.5,268.4 292.5,268.4 
		265.4,268.4 265.4,295.5 265.4,322.6 265.4,349.7 265.4,376.8 265.4,403.8 265.4,430.9 265.4,458 292.5,458 319.5,458 319.5,430.9 
		346.6,430.9 373.7,430.9 373.7,403.8 400.8,403.8 427.9,403.8 427.9,376.8 455,376.8 455,349.7 427.9,349.7 	"/>
</g>
</svg>
